<?xml version="1.0" encoding="utf-8"?>
<svg version="1.1" baseProfile="full"  width="400" height="400" viewBox="0 0 400 400"
		 xmlns="http://www.w3.org/2000/svg" xmlns:xlink="http://www.w3.org/1999/xlink" xmlns:ev="http://www.w3.org/2001/xml-events">
<desc></desc>
<rect width="400" height="400" fill="#fef102" cx="0" cy="0" />
<defs>
<rect id="p" width="16" height="16" />
</defs>
<g fill="#000000">
<use x="0" y="0" xlink:href="#p" />
<use x="0" y="16" xlink:href="#p" />
<use x="0" y="32" xlink:href="#p" />
<use x="0" y="48" xlink:href="#p" />
<use x="0" y="64" xlink:href="#p" />
<use x="0" y="80" xlink:href="#p" />
<use x="0" y="96" xlink:href="#p" />
<use x="0" y="128" xlink:href="#p" />
<use x="0" y="144" xlink:href="#p" />
<use x="0" y="160" xlink:href="#p" />
<use x="0" y="224" xlink:href="#p" />
<use x="0" y="240" xlink:href="#p" />
<use x="0" y="288" xlink:href="#p" />
<use x="0" y="304" xlink:href="#p" />
<use x="0" y="320" xlink:href="#p" />
<use x="0" y="336" xlink:href="#p" />
<use x="0" y="352" xlink:href="#p" />
<use x="0" y="368" xlink:href="#p" />
<use x="0" y="384" xlink:href="#p" />
<use x="16" y="0" xlink:href="#p" />
<use x="16" y="96" xlink:href="#p" />
<use x="16" y="144" xlink:href="#p" />
<use x="16" y="160" xlink:href="#p" />
<use x="16" y="176" xlink:href="#p" />
<use x="16" y="192" xlink:href="#p" />
<use x="16" y="208" xlink:href="#p" />
<use x="16" y="224" xlink:href="#p" />
<use x="16" y="240" xlink:href="#p" />
<use x="16" y="288" xlink:href="#p" />
<use x="16" y="384" xlink:href="#p" />
<use x="32" y="0" xlink:href="#p" />
<use x="32" y="32" xlink:href="#p" />
<use x="32" y="48" xlink:href="#p" />
<use x="32" y="64" xlink:href="#p" />
<use x="32" y="96" xlink:href="#p" />
<use x="32" y="176" xlink:href="#p" />
<use x="32" y="208" xlink:href="#p" />
<use x="32" y="256" xlink:href="#p" />
<use x="32" y="288" xlink:href="#p" />
<use x="32" y="320" xlink:href="#p" />
<use x="32" y="336" xlink:href="#p" />
<use x="32" y="352" xlink:href="#p" />
<use x="32" y="384" xlink:href="#p" />
<use x="48" y="0" xlink:href="#p" />
<use x="48" y="32" xlink:href="#p" />
<use x="48" y="48" xlink:href="#p" />
<use x="48" y="64" xlink:href="#p" />
<use x="48" y="96" xlink:href="#p" />
<use x="48" y="160" xlink:href="#p" />
<use x="48" y="192" xlink:href="#p" />
<use x="48" y="208" xlink:href="#p" />
<use x="48" y="240" xlink:href="#p" />
<use x="48" y="288" xlink:href="#p" />
<use x="48" y="320" xlink:href="#p" />
<use x="48" y="336" xlink:href="#p" />
<use x="48" y="352" xlink:href="#p" />
<use x="48" y="384" xlink:href="#p" />
<use x="64" y="0" xlink:href="#p" />
<use x="64" y="32" xlink:href="#p" />
<use x="64" y="48" xlink:href="#p" />
<use x="64" y="64" xlink:href="#p" />
<use x="64" y="96" xlink:href="#p" />
<use x="64" y="128" xlink:href="#p" />
<use x="64" y="144" xlink:href="#p" />
<use x="64" y="192" xlink:href="#p" />
<use x="64" y="224" xlink:href="#p" />
<use x="64" y="288" xlink:href="#p" />
<use x="64" y="320" xlink:href="#p" />
<use x="64" y="336" xlink:href="#p" />
<use x="64" y="352" xlink:href="#p" />
<use x="64" y="384" xlink:href="#p" />
<use x="80" y="0" xlink:href="#p" />
<use x="80" y="96" xlink:href="#p" />
<use x="80" y="176" xlink:href="#p" />
<use x="80" y="192" xlink:href="#p" />
<use x="80" y="224" xlink:href="#p" />
<use x="80" y="256" xlink:href="#p" />
<use x="80" y="288" xlink:href="#p" />
<use x="80" y="384" xlink:href="#p" />
<use x="96" y="0" xlink:href="#p" />
<use x="96" y="16" xlink:href="#p" />
<use x="96" y="32" xlink:href="#p" />
<use x="96" y="48" xlink:href="#p" />
<use x="96" y="64" xlink:href="#p" />
<use x="96" y="80" xlink:href="#p" />
<use x="96" y="96" xlink:href="#p" />
<use x="96" y="128" xlink:href="#p" />
<use x="96" y="160" xlink:href="#p" />
<use x="96" y="192" xlink:href="#p" />
<use x="96" y="224" xlink:href="#p" />
<use x="96" y="256" xlink:href="#p" />
<use x="96" y="288" xlink:href="#p" />
<use x="96" y="304" xlink:href="#p" />
<use x="96" y="320" xlink:href="#p" />
<use x="96" y="336" xlink:href="#p" />
<use x="96" y="352" xlink:href="#p" />
<use x="96" y="368" xlink:href="#p" />
<use x="96" y="384" xlink:href="#p" />
<use x="112" y="128" xlink:href="#p" />
<use x="112" y="160" xlink:href="#p" />
<use x="112" y="192" xlink:href="#p" />
<use x="112" y="208" xlink:href="#p" />
<use x="112" y="256" xlink:href="#p" />
<use x="128" y="0" xlink:href="#p" />
<use x="128" y="48" xlink:href="#p" />
<use x="128" y="64" xlink:href="#p" />
<use x="128" y="80" xlink:href="#p" />
<use x="128" y="96" xlink:href="#p" />
<use x="128" y="112" xlink:href="#p" />
<use x="128" y="128" xlink:href="#p" />
<use x="128" y="144" xlink:href="#p" />
<use x="128" y="176" xlink:href="#p" />
<use x="128" y="192" xlink:href="#p" />
<use x="128" y="224" xlink:href="#p" />
<use x="128" y="272" xlink:href="#p" />
<use x="128" y="288" xlink:href="#p" />
<use x="128" y="320" xlink:href="#p" />
<use x="128" y="384" xlink:href="#p" />
<use x="144" y="0" xlink:href="#p" />
<use x="144" y="16" xlink:href="#p" />
<use x="144" y="32" xlink:href="#p" />
<use x="144" y="64" xlink:href="#p" />
<use x="144" y="128" xlink:href="#p" />
<use x="144" y="176" xlink:href="#p" />
<use x="144" y="208" xlink:href="#p" />
<use x="144" y="224" xlink:href="#p" />
<use x="144" y="272" xlink:href="#p" />
<use x="144" y="304" xlink:href="#p" />
<use x="144" y="368" xlink:href="#p" />
<use x="160" y="16" xlink:href="#p" />
<use x="160" y="96" xlink:href="#p" />
<use x="160" y="112" xlink:href="#p" />
<use x="160" y="128" xlink:href="#p" />
<use x="160" y="144" xlink:href="#p" />
<use x="160" y="160" xlink:href="#p" />
<use x="160" y="176" xlink:href="#p" />
<use x="160" y="192" xlink:href="#p" />
<use x="160" y="208" xlink:href="#p" />
<use x="160" y="304" xlink:href="#p" />
<use x="160" y="320" xlink:href="#p" />
<use x="160" y="336" xlink:href="#p" />
<use x="160" y="368" xlink:href="#p" />
<use x="160" y="384" xlink:href="#p" />
<use x="176" y="32" xlink:href="#p" />
<use x="176" y="64" xlink:href="#p" />
<use x="176" y="80" xlink:href="#p" />
<use x="176" y="144" xlink:href="#p" />
<use x="176" y="192" xlink:href="#p" />
<use x="176" y="256" xlink:href="#p" />
<use x="176" y="288" xlink:href="#p" />
<use x="176" y="304" xlink:href="#p" />
<use x="176" y="384" xlink:href="#p" />
<use x="192" y="0" xlink:href="#p" />
<use x="192" y="16" xlink:href="#p" />
<use x="192" y="32" xlink:href="#p" />
<use x="192" y="48" xlink:href="#p" />
<use x="192" y="64" xlink:href="#p" />
<use x="192" y="80" xlink:href="#p" />
<use x="192" y="96" xlink:href="#p" />
<use x="192" y="112" xlink:href="#p" />
<use x="192" y="128" xlink:href="#p" />
<use x="192" y="176" xlink:href="#p" />
<use x="192" y="192" xlink:href="#p" />
<use x="192" y="240" xlink:href="#p" />
<use x="192" y="272" xlink:href="#p" />
<use x="192" y="288" xlink:href="#p" />
<use x="192" y="320" xlink:href="#p" />
<use x="192" y="368" xlink:href="#p" />
<use x="208" y="48" xlink:href="#p" />
<use x="208" y="144" xlink:href="#p" />
<use x="208" y="208" xlink:href="#p" />
<use x="208" y="256" xlink:href="#p" />
<use x="208" y="288" xlink:href="#p" />
<use x="208" y="304" xlink:href="#p" />
<use x="208" y="320" xlink:href="#p" />
<use x="208" y="336" xlink:href="#p" />
<use x="208" y="384" xlink:href="#p" />
<use x="224" y="0" xlink:href="#p" />
<use x="224" y="48" xlink:href="#p" />
<use x="224" y="64" xlink:href="#p" />
<use x="224" y="96" xlink:href="#p" />
<use x="224" y="144" xlink:href="#p" />
<use x="224" y="160" xlink:href="#p" />
<use x="224" y="176" xlink:href="#p" />
<use x="224" y="224" xlink:href="#p" />
<use x="224" y="256" xlink:href="#p" />
<use x="224" y="272" xlink:href="#p" />
<use x="224" y="288" xlink:href="#p" />
<use x="224" y="336" xlink:href="#p" />
<use x="224" y="368" xlink:href="#p" />
<use x="224" y="384" xlink:href="#p" />
<use x="240" y="0" xlink:href="#p" />
<use x="240" y="48" xlink:href="#p" />
<use x="240" y="64" xlink:href="#p" />
<use x="240" y="112" xlink:href="#p" />
<use x="240" y="144" xlink:href="#p" />
<use x="240" y="160" xlink:href="#p" />
<use x="240" y="192" xlink:href="#p" />
<use x="240" y="208" xlink:href="#p" />
<use x="240" y="224" xlink:href="#p" />
<use x="240" y="240" xlink:href="#p" />
<use x="240" y="256" xlink:href="#p" />
<use x="240" y="336" xlink:href="#p" />
<use x="240" y="368" xlink:href="#p" />
<use x="240" y="384" xlink:href="#p" />
<use x="256" y="32" xlink:href="#p" />
<use x="256" y="64" xlink:href="#p" />
<use x="256" y="80" xlink:href="#p" />
<use x="256" y="96" xlink:href="#p" />
<use x="256" y="144" xlink:href="#p" />
<use x="256" y="160" xlink:href="#p" />
<use x="256" y="208" xlink:href="#p" />
<use x="256" y="240" xlink:href="#p" />
<use x="256" y="256" xlink:href="#p" />
<use x="256" y="272" xlink:href="#p" />
<use x="256" y="288" xlink:href="#p" />
<use x="256" y="304" xlink:href="#p" />
<use x="256" y="320" xlink:href="#p" />
<use x="272" y="128" xlink:href="#p" />
<use x="272" y="144" xlink:href="#p" />
<use x="272" y="160" xlink:href="#p" />
<use x="272" y="176" xlink:href="#p" />
<use x="272" y="192" xlink:href="#p" />
<use x="272" y="224" xlink:href="#p" />
<use x="272" y="256" xlink:href="#p" />
<use x="272" y="320" xlink:href="#p" />
<use x="272" y="336" xlink:href="#p" />
<use x="272" y="352" xlink:href="#p" />
<use x="288" y="0" xlink:href="#p" />
<use x="288" y="16" xlink:href="#p" />
<use x="288" y="32" xlink:href="#p" />
<use x="288" y="48" xlink:href="#p" />
<use x="288" y="64" xlink:href="#p" />
<use x="288" y="80" xlink:href="#p" />
<use x="288" y="96" xlink:href="#p" />
<use x="288" y="128" xlink:href="#p" />
<use x="288" y="176" xlink:href="#p" />
<use x="288" y="192" xlink:href="#p" />
<use x="288" y="224" xlink:href="#p" />
<use x="288" y="256" xlink:href="#p" />
<use x="288" y="288" xlink:href="#p" />
<use x="288" y="320" xlink:href="#p" />
<use x="288" y="336" xlink:href="#p" />
<use x="288" y="352" xlink:href="#p" />
<use x="288" y="368" xlink:href="#p" />
<use x="304" y="0" xlink:href="#p" />
<use x="304" y="96" xlink:href="#p" />
<use x="304" y="128" xlink:href="#p" />
<use x="304" y="160" xlink:href="#p" />
<use x="304" y="176" xlink:href="#p" />
<use x="304" y="192" xlink:href="#p" />
<use x="304" y="240" xlink:href="#p" />
<use x="304" y="256" xlink:href="#p" />
<use x="304" y="320" xlink:href="#p" />
<use x="304" y="336" xlink:href="#p" />
<use x="320" y="0" xlink:href="#p" />
<use x="320" y="32" xlink:href="#p" />
<use x="320" y="48" xlink:href="#p" />
<use x="320" y="64" xlink:href="#p" />
<use x="320" y="96" xlink:href="#p" />
<use x="320" y="128" xlink:href="#p" />
<use x="320" y="144" xlink:href="#p" />
<use x="320" y="160" xlink:href="#p" />
<use x="320" y="192" xlink:href="#p" />
<use x="320" y="208" xlink:href="#p" />
<use x="320" y="224" xlink:href="#p" />
<use x="320" y="240" xlink:href="#p" />
<use x="320" y="256" xlink:href="#p" />
<use x="320" y="272" xlink:href="#p" />
<use x="320" y="288" xlink:href="#p" />
<use x="320" y="304" xlink:href="#p" />
<use x="320" y="320" xlink:href="#p" />
<use x="320" y="384" xlink:href="#p" />
<use x="336" y="0" xlink:href="#p" />
<use x="336" y="32" xlink:href="#p" />
<use x="336" y="48" xlink:href="#p" />
<use x="336" y="64" xlink:href="#p" />
<use x="336" y="96" xlink:href="#p" />
<use x="336" y="128" xlink:href="#p" />
<use x="336" y="192" xlink:href="#p" />
<use x="336" y="208" xlink:href="#p" />
<use x="336" y="224" xlink:href="#p" />
<use x="336" y="272" xlink:href="#p" />
<use x="336" y="288" xlink:href="#p" />
<use x="336" y="336" xlink:href="#p" />
<use x="336" y="384" xlink:href="#p" />
<use x="352" y="0" xlink:href="#p" />
<use x="352" y="32" xlink:href="#p" />
<use x="352" y="48" xlink:href="#p" />
<use x="352" y="64" xlink:href="#p" />
<use x="352" y="96" xlink:href="#p" />
<use x="352" y="176" xlink:href="#p" />
<use x="352" y="192" xlink:href="#p" />
<use x="352" y="224" xlink:href="#p" />
<use x="352" y="240" xlink:href="#p" />
<use x="352" y="256" xlink:href="#p" />
<use x="352" y="272" xlink:href="#p" />
<use x="352" y="304" xlink:href="#p" />
<use x="352" y="320" xlink:href="#p" />
<use x="352" y="352" xlink:href="#p" />
<use x="352" y="368" xlink:href="#p" />
<use x="352" y="384" xlink:href="#p" />
<use x="368" y="0" xlink:href="#p" />
<use x="368" y="96" xlink:href="#p" />
<use x="368" y="144" xlink:href="#p" />
<use x="368" y="192" xlink:href="#p" />
<use x="368" y="240" xlink:href="#p" />
<use x="368" y="256" xlink:href="#p" />
<use x="368" y="272" xlink:href="#p" />
<use x="368" y="320" xlink:href="#p" />
<use x="368" y="336" xlink:href="#p" />
<use x="368" y="352" xlink:href="#p" />
<use x="368" y="368" xlink:href="#p" />
<use x="368" y="384" xlink:href="#p" />
<use x="384" y="0" xlink:href="#p" />
<use x="384" y="16" xlink:href="#p" />
<use x="384" y="32" xlink:href="#p" />
<use x="384" y="48" xlink:href="#p" />
<use x="384" y="64" xlink:href="#p" />
<use x="384" y="80" xlink:href="#p" />
<use x="384" y="96" xlink:href="#p" />
<use x="384" y="128" xlink:href="#p" />
<use x="384" y="192" xlink:href="#p" />
<use x="384" y="256" xlink:href="#p" />
<use x="384" y="320" xlink:href="#p" />
<use x="384" y="336" xlink:href="#p" />
<use x="384" y="384" xlink:href="#p" />
</g>
</svg>